# xmcd
# 
# Track frame offsets:
#     150
#     23705
#     61867
# 
# Disc length: 1011
# 
# Revision: 1
# Processed by: cddbd v1.5.2PL0 Copyright (c) Steve Scherf et al.
# Submitted via: BonkEnc v1.0.8
# 
DISCID=1a03f103
DTITLE=スピッツ - 流れ星
DYEAR=1999
DGENRE=J-Pop
TTITLE0=流れ星
TTITLE1=エトランゼ (TANAYAMIX)
TTITLE2=愛のしるし (LIVE '98 version)
EXTD=
EXTT0=
EXTT1=
EXTT2=
PLAYORDER=
